<?xml version="1.0" encoding="utf-8" ?>
<svg baseProfile="full" version="1.1" xmlns="http://www.w3.org/2000/svg" xmlns:ev="http://www.w3.org/2001/xml-events" xmlns:xlink="http://www.w3.org/1999/xlink" width="358px" height="206px">
<defs>
<style type="text/css">
@import url('common.css');
@import url('svg.css')
</style> 
</defs>
<svg x="0" y="0" width="100%" height="100%" class="drum drum-0">
<rect x="0" y="0" width="100%" height="100%" class="drum-background"/>
<rect x="1.0%" y="1.5%" width="98%" height="97%" rx="6%" ry="9%" class="drum-png drum-0"/>

<svg x="2.16%" y="6.48%" class="root button-0" width="30.24%" height="30.24%" viewBox="0 0 91 91">
<circle cx="45.4" cy="45.4" r="12" class="icon OFF"/></svg>
<svg x="23.97%" y="6.48%" class="note-diamond button-1" width="30.24%" height="30.24%" viewBox="0 0 91 91">
<circle cx="45.4" cy="45.4" r="12" class="icon OFF"/></svg>
<svg x="45.79%" y="6.48%" class="note-circle button-2" width="30.24%" height="30.24%" viewBox="0 0 91 91">
<circle cx="45.4" cy="45.4" r="12" class="icon OFF"/></svg>
<svg x="67.60%" y="6.48%" class="note-diamond button-3" width="30.24%" height="30.24%" viewBox="0 0 91 91">
<circle cx="45.4" cy="45.4" r="12" class="icon OFF"/></svg>

<svg x="2.16%" y="60.26%" class="note-circle button-4" width="30.24%" height="30.24%" viewBox="0 0 91 91">
<circle cx="45.4" cy="45.4" r="12" class="icon OFF"/></svg>
<svg x="23.97%" y="60.26%" class="note-circle button-5" width="30.24%" height="30.24%" viewBox="0 0 91 91">
<circle cx="45.4" cy="45.4" r="12" class="icon OFF"/></svg>
<svg x="45.79%" y="60.26%" class="note-diamond button-6" width="30.24%" height="30.24%" viewBox="0 0 91 91">
<circle cx="45.4" cy="45.4" r="12" class="icon OFF"/></svg>
<svg x="67.60%" y="60.26%" class="note-root button-7" width="30.24%" height="30.24%" viewBox="0 0 91 91">
<circle cx="45.4" cy="45.4" r="12" class="icon OFF"/></svg>



</svg>
</svg>



