<?xml version="1.0" encoding="UTF-8"?>
<svg width="100" height="110" viewBox="0 0 100 110" xmlns="http://www.w3.org/2000/svg">
<defs>
<style type="text/css">
@import url('svg.css');
</style>
</defs>  
<path class="sw-fill" d="M -1e-6,102.5 H 100 V 44.687336 C 98.246761,20.176438 84.108619,9.5799975 62.42621,7.5000005 H -1e-6 Z" />
<path style="fill:white" d="m 29.322905,72.536601 h 23.943329 l 0.723141,5.581998 H 22.782173 L 22,72.536601 46.064345,40.644367 H 24.520661 L 23.679457,35 h 29.409682 l 0.779221,5.644367 z m 31.089138,5.581998 V 48.144203 h 8.468123 c 6.377867,-0.01093 10.940742,3.014092 10.971075,9.034106 0.01488,3.536905 -1.953774,6.45478 -4.878985,7.88964 l 7.051358,13.05065 h -5.050177 l -6.174735,-11.81575 c -1.93458,0.210605 -3.64048,0.134093 -5.714286,0.134093 V 78.118599 Z M 74.930934,57.399718 c -0.179766,-5.627371 -4.764292,-5.114234 -9.846518,-5.114234 v 10.094374 h 3.627509 c 3.699055,-0.02482 6.425155,-1.66343 6.219009,-4.98014 z" />
</svg>
