<?xml version="1.0" encoding="UTF-8"?>
<svg width="94" height="103.4" viewBox="0 0 94 103.4" xmlns="http://www.w3.org/2000/svg">
<defs>
<style type="text/css">
@import url('svg.css')
</style>
</defs>
<path class="ps-fill" d="m 83.38,103.21 h -71.75 c -5.84,0 -10.63,-4.70 -10.63,-10.40 V 56.71 C 5.99,23.83 24.34,5.23 56.07,0.62 c 4.34,-0.64 8.76,-0.56 13.08,0 C 83.09,2.83 91.17,11.68 94,26.50 v 66.30 c 0,5.71 -4.80,10.40 -10.63,10.40 z M 82.67,103.400 H 10.67 C 4.82,103.400 0,98.68 0,92.96 V 56.73 C 5.01,23.73 23.42,5.06 55.28,0.45 c 4.36,-0.64 8.79,-0.56 13.13,0 C 82.38,2.66 90.49,11.53 93.33,26.40 v 66.54 c 0,5.73 -4.82,10.44 -10.67,10.44 z" />
<path class="ps" style="fill:white" d="m 33.27,70.61 h 17.06 l 0.85,4.64 H 27.01 v -35.96 h 6.26 z m 20.68,-23.20 c 3.22,-1.87 6.74,-2.77 10.43,-2.77 6.16,0 11.67,3.30 11.76,8.84 -0.10,5.53 -4.55,9.46 -8.15,12.32 l -6.26,4.91 H 77 l 0.85,4.55 H 53.18 v -3.93 l 11.67,-9.46 c 3.04,-3.21 9.48,-6.96 3.98,-11.24 -4.37,-2.41 -9.76,-0.54 -13.65,1.52 z" />
</svg>
