<?xml version="1.0" encoding="UTF-8"?>
<svg width="100" height="110" viewBox="0 -5 100 110" xmlns="http://www.w3.org/2000/svg">
<defs>
<style type="text/css">
@import url('svg.css')
</style>
</defs>
<path class="ps-fill" d="M 66.27,88.37 C 84.82,88.37 100,71 100,49.79 V 15.68 C 99.86,13.33 98.95,12.07 97.17,12 H 2.83 C 1.05,12.07 0.14,13.33 0,15.68 V 49.79 C 0,71 15.18,88.37 33.73,88.37 Z" />
<path class="ps" style="fill:white" d="m 27.08,67.81 v -39.4 h 11.77 c 4.51,0 8.18,1 10.98,2.96 2.84,2 4.26,4.97 4.26,8.89 0,2.46 -0.63,4.55 -1.88,6.34 -1.21,1.75 -2.88,3.13 -4.92,4.05 L 57.1,67.8 H 50.09 L 41.53,52.27 c -0.79,0.08 -1.84,0.17 -3.21,0.17 H 33.55 V 67.81 Z M 47.24,40.55 c 0,-2.38 -0.75,-4.09 -2.21,-5.13 -1.46,-1.04 -3.55,-1.59 -6.3,-1.59 H 33.55 V 47.1 h 5.05 c 2.59,0 4.67,-0.5 6.26,-1.54 1.59,-1.04 2.38,-2.71 2.38,-5.01 z M 73.78,35 V 67.81 H 67.27 V 42.26 l -6.34,2.92 -2.67,-5.01 11.19,-5.18 z" />
</svg>
