<?xml version="1.0" encoding="UTF-8"?>
<svg width="94" height="103.4" viewBox="0 0 94 103.4" xmlns="http://www.w3.org/2000/svg">
<defs>
<style type="text/css">
@import url('svg.css')
</style>
</defs>
<path class="ps-fill" d="M 10.74,103.400 H 83.26 C 89.14,103.400 94,98.75 94,92.98 V 56.78 C 88.98,23.75 70.34,5.08 38.36,0.42 c -4.42,-0.63 -8.85,-0.49 -13.27,0 C 11.03,2.68 2.83,11.55 0,26.42 v 66.55 c 0,5.77 4.79,10.42 10.74,10.42 z" />
<path class="ps" style="fill:white" d="M 21.33,74 V 37.95 h 11.32 c 8.03,-0.02 14.68,2.8002 14.78,10.85 -0.11,4.91 -2.45,7.72 -6.56,9.49 l 9.44,15.70 H 43.53 L 35.24,59.80 c -2.59,0.24 -4.85,0.14 -7.64,0.14 V 74 Z M 40.79,49.08 C 40.51,41.61 32.07,42.93 27.60,42.94 v 12.15 c 5.26,-0.16 13.11,0.98 13.20,-6 z m 12.25,-3 c 3.24,-1.804 6.70,-2.800 10.45,-2.800 6.45,-0.36 11.59,2.58 11.68,8.95 0,2.18 -0.58,4.23 -1.80,6.01 -1.15,1.804 -3.24,3.89 -6.27,6.28 l -6.27,4.92 h 15.21 l 0.87,4.57 H 52.33 V 70.05 C 57.42,65.64 64.09,61.65 68.27,56.26 69.97,54.01 70.32,50.54 67.46,48.85 64.10,47.43 58.47,48.54 54.36,50.87 Z" />
</svg>
