<?xml version="1.0" encoding="utf-8" ?>
<svg baseProfile="full" version="1.1" xmlns="http://www.w3.org/2000/svg" xmlns:ev="http://www.w3.org/2001/xml-events" xmlns:xlink="http://www.w3.org/1999/xlink" width="100%" height="100%" viewBox="0.00 0.00 1333.33 750.00" preserveAspectRatio="xMinYMin">
<defs>
<symbol id="crc" viewBox="0 0 91 91"><circle fill="transparent" stroke="white" stroke-width="5px" cx="45.4" cy="45.4" r="26"/></symbol>
<symbol id="dmn" viewBox="0 0 91 91"><rect x="19.5" y="19.3" fill="transparent" stroke="white" stroke-width="5px" transform="matrix(-0.7071 -0.7071 0.7071 -0.7071 45.3002 109.5842)" width="52" height="52" /></symbol>
<symbol id="crdm" viewBox="0 0 91 91"><use xlink:href="#dmn" /><use xlink:href="#crc" /></symbol>
<symbol id="d1" viewBox="0 0 91 91"><circle cx="45.4" cy="45.4" r="12" stroke="white" fill="rgb(194,240,194)" /></symbol>
<symbol id="d2" viewBox="0 0 91 91"><circle cx="45.4" cy="45.4" r="12" stroke="white" fill="rgb(179,236,255)" /></symbol>
<symbol id="d3" viewBox="0 0 91 91"><circle cx="45.4" cy="45.4" r="12" stroke="white" fill="rgb(255,185,223)" /></symbol>
<symbol id="note" viewBox="0 0 91 91"><path d="M90.7 76.5c0 7.8-6.3 14.2-14.2 14.2H14.2C6.3 90.7 0 84.4 0 76.5V14.2C0 6.3 6.3 0 14.2 0h62.3c7.8 0 14.2 6.3 14.2 14.2V76.5z"/></symbol>
<symbol id="silent" viewBox="0 0 91 91"><circle cx="45.4" cy="45.4" r="28" stroke="none" fill="#BBBBBB" /></symbol>
<symbol id="broken" viewBox="0 0 91 91"><text x="45.4" y="91" class="broken">?</text></symbol>
<symbol id="instr"><rect x="0.7%" y="0.7%" width="98.6%" height="98.6%" rx="7.5%" ry="10.91%" stroke="white" fill="#BBBBBB" /></symbol>
</defs>
</svg>
