<?xml version="1.0" encoding="UTF-8"?>
<svg width="100" height="110" viewBox="0 -10 100 110" xmlns="http://www.w3.org/2000/svg">
<defs>
<style type="text/css">
@import url(svg2png.css)
</style>
</defs>
<path class="ps-fill" d="M 49.97,0 H 39.48 C 36.12,0 33.39,2.74 33.39,6.09 V 22.29 c 0.10,0.88 0.31,1.55 0.57,1.96 l 12.87,13.78 c 1.65,1.44 4.65,1.44 6.25,0 L 65.94,24.26 c 0.31,-0.41 0.52,-1.08 0.62,-1.96 V 6.09 C 66.56,2.74 63.82,0 60.47,0 Z" />
<path class="ps-unpressed" transform="rotate(90,50,50)" d="M 49.97,0 H 39.48 C 36.12,0 33.39,2.74 33.39,6.09 V 22.29 c 0.10,0.88 0.31,1.55 0.57,1.96 l 12.87,13.78 c 1.65,1.44 4.65,1.44 6.25,0 L 65.94,24.26 c 0.31,-0.41 0.52,-1.08 0.62,-1.96 V 6.09 C 66.56,2.74 63.82,0 60.47,0 Z" />
<path class="ps-unpressed" transform="rotate(180,50,50)" d="M 49.97,0 H 39.48 C 36.12,0 33.39,2.74 33.39,6.09 V 22.29 c 0.10,0.88 0.31,1.55 0.57,1.96 l 12.87,13.78 c 1.65,1.44 4.65,1.44 6.25,0 L 65.94,24.26 c 0.31,-0.41 0.52,-1.08 0.62,-1.96 V 6.09 C 66.56,2.74 63.82,0 60.47,0 Z" />
<path class="ps-unpressed" transform="rotate(270,50,50)" d="M 49.97,0 H 39.48 C 36.12,0 33.39,2.74 33.39,6.09 V 22.29 c 0.10,0.88 0.31,1.55 0.57,1.96 l 12.87,13.78 c 1.65,1.44 4.65,1.44 6.25,0 L 65.94,24.26 c 0.31,-0.41 0.52,-1.08 0.62,-1.96 V 6.09 C 66.56,2.74 63.82,0 60.47,0 Z" />
</svg>
